<svg xmlns="http://www.w3.org/2000/svg" viewBox="104 207 2029 1213" width="500" height="299" role="img" aria-label="LuBo - Ludmila Borreli">
  <title>LuBo - Ludmila Borreli</title>
  <g transform="translate(0,1570) scale(0.1,-0.1)" fill="#1a1a1a" stroke="none">
<path d="M9375 13324 c-105 -11 -174 -28 -221 -54 -27 -15 -83 -38 -122 -49
-40 -12 -87 -34 -105 -50 -17 -15 -53 -39 -79 -54 -26 -15 -52 -36 -58 -47 -5
-10 -43 -39 -83 -64 -41 -26 -92 -68 -115 -95 -22 -26 -61 -58 -86 -69 -33
-16 -56 -38 -86 -82 -22 -33 -44 -60 -49 -60 -10 0 -188 -194 -256 -279 -27
-35 -84 -104 -125 -153 -41 -50 -86 -107 -100 -128 -24 -36 -64 -88 -145 -192
-133 -170 -166 -219 -228 -338 -28 -52 -62 -108 -77 -125 -16 -16 -40 -55 -55
-85 -15 -30 -40 -71 -55 -90 -15 -19 -43 -68 -63 -107 -20 -40 -49 -90 -65
-110 -17 -21 -35 -54 -41 -74 -7 -20 -27 -58 -46 -85 -19 -27 -35 -54 -35 -60
0 -5 -17 -39 -39 -75 -21 -35 -46 -90 -55 -122 -9 -31 -34 -85 -56 -118 -21
-33 -44 -77 -51 -97 -6 -20 -38 -86 -69 -147 -32 -60 -68 -143 -80 -183 -13
-40 -43 -112 -68 -160 -133 -259 -181 -361 -187 -396 -4 -21 -22 -71 -41 -112
-18 -40 -40 -99 -48 -130 -8 -32 -25 -68 -38 -80 -25 -25 -94 -51 -318 -121
-80 -24 -174 -55 -210 -69 -36 -13 -129 -33 -208 -44 -79 -11 -178 -32 -220
-46 -60 -20 -112 -28 -237 -36 -88 -5 -219 -8 -291 -5 -114 5 -140 9 -195 32
-35 15 -116 42 -180 59 -75 21 -127 41 -147 57 -16 14 -56 36 -88 49 -33 13
-70 33 -84 45 -14 13 -41 31 -60 40 -41 21 -167 145 -198 196 -12 19 -31 44
-42 54 -11 10 -27 41 -35 69 -32 108 -74 141 -134 105 -36 -22 -56 -83 -47
-147 8 -60 82 -204 136 -266 113 -129 214 -207 332 -256 42 -17 82 -38 89 -46
6 -8 50 -26 98 -40 47 -14 120 -41 161 -59 41 -19 104 -39 140 -44 79 -13 733
-14 875 -1 68 6 136 20 212 44 62 20 149 41 194 47 84 10 110 20 176 65 26 17
48 24 72 22 53 -5 58 -24 27 -104 -15 -38 -42 -103 -60 -144 -18 -41 -41 -96
-50 -121 -9 -26 -26 -55 -37 -65 -11 -9 -27 -43 -36 -73 -8 -31 -28 -81 -43
-111 -15 -30 -37 -91 -49 -135 -12 -44 -34 -100 -48 -123 -13 -24 -37 -74 -52
-110 -16 -37 -42 -89 -60 -117 -17 -27 -41 -81 -53 -120 -11 -38 -36 -100 -54
-136 -18 -36 -40 -91 -49 -123 -10 -33 -35 -86 -56 -118 -21 -33 -47 -84 -59
-114 -11 -30 -34 -82 -51 -116 -17 -34 -37 -85 -45 -115 -8 -29 -25 -70 -39
-91 -13 -20 -30 -53 -36 -72 -7 -19 -29 -60 -49 -90 -20 -30 -67 -118 -105
-195 -37 -77 -83 -157 -101 -177 -18 -20 -41 -52 -50 -70 -9 -18 -34 -53 -56
-77 -21 -25 -47 -64 -58 -89 -11 -24 -31 -57 -45 -73 -13 -17 -34 -50 -45 -75
-11 -27 -48 -74 -87 -111 -63 -61 -69 -65 -103 -59 -20 3 -71 17 -114 31 -42
14 -87 25 -99 25 -13 0 -63 9 -112 19 -50 10 -151 24 -225 31 -155 13 -232 23
-380 46 -79 12 -175 16 -385 16 -270 -1 -283 -1 -380 -27 -55 -14 -153 -33
-217 -40 -124 -15 -175 -28 -273 -69 -33 -14 -71 -26 -85 -26 -49 0 -99 -21
-145 -59 -28 -23 -70 -45 -104 -55 -31 -9 -74 -27 -96 -41 -22 -13 -56 -33
-76 -44 -19 -11 -55 -36 -79 -56 -24 -20 -60 -45 -80 -55 -45 -23 -266 -241
-276 -272 -4 -13 -25 -50 -47 -82 -22 -33 -45 -78 -52 -100 -19 -65 -27 -204
-14 -271 19 -108 59 -173 172 -286 94 -94 111 -106 214 -155 62 -30 138 -62
170 -73 61 -20 265 -37 533 -45 167 -5 520 24 609 50 31 9 84 29 120 45 35 16
93 34 130 40 36 6 91 24 121 39 30 15 89 38 130 50 41 12 99 35 128 51 29 16
76 39 104 50 29 11 71 37 93 58 28 25 65 46 111 60 38 13 87 36 108 52 22 16
45 29 51 29 6 0 29 15 51 33 21 19 62 46 89 61 28 14 60 42 73 62 14 22 40 42
68 55 64 27 189 137 450 397 58 57 102 92 114 92 12 0 69 -18 128 -40 59 -23
141 -49 183 -60 41 -11 102 -31 134 -45 31 -14 96 -33 142 -41 47 -8 112 -27
146 -43 34 -16 94 -39 132 -51 39 -13 99 -37 135 -55 36 -18 86 -38 110 -45
25 -7 87 -30 137 -51 58 -24 116 -42 155 -46 65 -6 102 -20 153 -58 17 -13 66
-35 110 -50 44 -15 105 -40 135 -55 30 -15 82 -35 115 -44 33 -10 78 -28 101
-41 23 -13 95 -38 160 -55 75 -20 135 -42 164 -61 24 -16 69 -37 100 -45 30
-8 105 -32 165 -54 61 -21 151 -51 200 -66 50 -15 115 -37 145 -49 30 -13 78
-28 107 -34 28 -6 81 -26 116 -45 35 -18 100 -41 143 -51 43 -9 138 -37 209
-61 72 -24 166 -49 210 -55 44 -6 112 -22 150 -36 39 -14 99 -32 135 -40 36
-9 155 -38 265 -65 156 -39 229 -52 330 -58 72 -5 189 -20 260 -34 72 -13 191
-30 265 -37 185 -17 1119 -18 1300 -1 74 7 167 15 205 18 39 3 129 16 200 29
72 14 181 29 242 34 88 8 129 17 187 41 41 17 129 42 196 55 88 18 138 34 183
59 38 21 94 41 146 51 47 9 117 28 155 41 39 14 106 36 149 50 43 14 111 45
151 70 41 24 77 44 82 44 7 0 103 46 307 147 48 23 94 43 102 43 7 0 39 20 72
43 32 24 105 68 163 97 150 76 298 167 345 211 22 20 63 48 90 62 59 30 142
91 245 181 41 36 107 91 145 123 39 31 129 114 200 184 72 70 144 139 161 153
17 13 43 44 59 68 16 24 61 77 101 119 76 81 123 146 202 280 28 47 58 92 67
99 9 8 28 36 42 63 14 28 45 80 68 116 30 45 60 113 93 211 27 80 53 165 57
190 4 25 18 62 32 83 14 22 29 66 34 100 6 34 17 96 24 137 23 117 36 371 25
480 -5 52 -12 110 -16 128 -4 20 -2 38 6 47 7 8 38 22 69 31 31 9 61 20 67 25
29 23 160 59 269 73 75 10 144 26 184 42 40 16 107 32 175 40 142 18 191 18
205 0 17 -20 2 -46 -63 -117 -60 -65 -118 -145 -147 -201 -12 -23 -38 -66 -59
-97 -21 -31 -66 -112 -99 -181 -50 -103 -64 -144 -81 -235 -11 -60 -31 -146
-45 -190 -21 -69 -25 -102 -27 -240 -3 -156 -2 -162 29 -255 17 -52 38 -120
47 -150 22 -77 73 -152 164 -240 99 -96 171 -145 249 -170 34 -10 109 -24 168
-30 78 -9 137 -9 227 -1 67 7 148 18 180 26 90 24 246 108 428 231 45 31 181
147 234 200 71 71 162 177 189 221 14 23 44 56 66 73 41 34 95 113 143 213 16
32 42 71 59 87 19 17 40 54 55 96 14 38 38 85 53 104 39 49 47 67 61 135 6 33
27 86 45 118 19 31 39 74 44 95 18 65 29 73 117 83 43 5 201 13 349 18 149 6
306 15 350 21 44 7 107 22 140 35 78 31 117 40 250 61 65 9 128 26 155 39 25
13 79 33 120 45 79 24 281 125 340 170 19 15 55 36 80 47 25 11 63 35 85 54
73 62 185 184 192 208 8 33 -15 72 -50 84 -43 14 -91 0 -138 -41 -24 -21 -62
-49 -84 -62 -22 -13 -56 -37 -74 -53 -19 -17 -59 -40 -88 -53 -29 -13 -70 -35
-91 -48 -20 -13 -61 -29 -90 -36 -32 -7 -68 -25 -93 -46 -22 -18 -59 -38 -82
-44 -94 -24 -184 -53 -219 -71 -20 -10 -69 -21 -110 -25 -40 -3 -162 -21 -271
-40 -231 -41 -355 -53 -524 -54 -97 0 -125 3 -137 16 -9 8 -16 18 -16 22 0 4
9 51 20 105 12 59 20 139 20 196 0 75 -7 125 -29 213 -16 63 -36 132 -45 152
-8 20 -53 74 -98 119 -63 64 -101 91 -158 119 -41 19 -93 39 -115 43 -22 4
-74 18 -115 32 -62 20 -87 24 -146 19 -65 -5 -355 -62 -431 -85 -17 -5 -62
-25 -100 -44 -37 -19 -82 -39 -99 -45 -17 -5 -52 -26 -77 -45 -25 -19 -61 -40
-80 -46 -19 -7 -55 -33 -79 -59 -25 -26 -82 -78 -126 -117 -45 -38 -87 -81
-94 -93 -20 -39 -65 -55 -163 -59 -66 -3 -107 -11 -155 -30 -53 -21 -92 -28
-210 -35 -151 -10 -227 -23 -320 -57 -31 -11 -125 -29 -210 -41 -124 -17 -161
-26 -185 -44 -79 -60 -113 -42 -144 77 -5 20 -23 54 -39 75 -16 20 -41 60 -55
88 -27 52 -97 123 -177 177 -25 17 -68 50 -97 74 -29 24 -67 49 -85 55 -18 6
-55 26 -83 44 -28 19 -82 42 -125 52 -41 10 -98 29 -125 41 -70 32 -100 40
-181 51 -89 12 -131 27 -116 42 11 11 147 60 286 104 44 13 108 40 142 59 35
20 93 45 131 56 37 11 84 31 104 44 20 13 70 34 110 46 41 12 104 39 141 60
36 22 71 39 76 39 5 0 47 23 93 51 46 29 109 58 139 66 30 8 82 29 115 47 33
18 81 41 107 51 26 10 64 32 85 50 21 17 58 44 83 60 25 15 54 36 66 46 11 10
48 32 82 49 72 34 232 138 232 150 0 4 37 33 83 64 131 91 188 141 344 306
202 212 252 273 275 332 11 29 32 68 48 87 15 20 42 65 59 100 17 36 40 74 50
85 11 12 31 62 45 111 13 50 37 124 53 165 27 73 28 80 28 275 l0 200 -42 112
c-24 62 -43 116 -43 120 -1 17 -109 155 -176 225 -99 102 -180 167 -243 195
-30 13 -73 37 -95 53 -23 17 -74 41 -114 54 -41 14 -88 34 -106 46 -36 21
-235 89 -356 120 -41 10 -122 24 -180 29 -58 6 -154 15 -215 21 -177 18 -602
24 -780 11 -88 -7 -243 -16 -345 -21 -174 -10 -346 -31 -397 -51 -13 -5 -67
-16 -121 -24 -213 -34 -258 -43 -292 -63 -19 -12 -102 -37 -185 -58 -82 -20
-171 -47 -196 -60 -49 -24 -134 -48 -214 -59 -27 -4 -81 -22 -120 -40 -38 -18
-95 -40 -125 -50 -30 -10 -77 -34 -105 -53 -27 -19 -90 -50 -140 -68 -151 -54
-274 -110 -303 -136 -27 -25 -117 -76 -265 -149 -98 -49 -241 -135 -258 -155
-7 -8 -42 -32 -78 -54 -144 -84 -281 -181 -356 -251 -27 -26 -78 -70 -113 -97
-94 -75 -316 -293 -345 -340 -15 -22 -39 -55 -55 -74 -16 -18 -41 -55 -55 -83
-14 -27 -42 -66 -62 -85 -20 -19 -48 -57 -62 -85 -14 -27 -39 -67 -55 -88 -17
-20 -37 -63 -45 -94 -8 -31 -25 -77 -38 -102 -12 -26 -34 -89 -48 -141 -24
-90 -70 -321 -80 -403 -8 -61 11 -175 37 -233 13 -29 32 -87 41 -128 10 -43
31 -99 50 -130 58 -97 152 -202 255 -286 111 -90 146 -113 206 -133 22 -8 62
-29 90 -45 28 -18 87 -40 134 -51 47 -11 112 -29 145 -41 65 -22 111 -19 132
9 7 9 13 35 13 58 0 33 -6 48 -32 76 -26 26 -49 38 -105 51 -51 13 -90 31
-135 63 -35 24 -77 50 -94 58 -18 7 -49 28 -70 47 -22 19 -55 47 -75 62 -23
16 -45 47 -59 78 -12 28 -42 82 -67 119 l-45 68 -13 158 c-12 135 -12 179 1
308 8 83 19 166 24 185 21 86 117 350 141 386 14 21 33 59 43 84 10 25 36 65
59 91 23 25 68 81 99 125 70 96 344 377 413 423 28 19 79 62 115 96 87 82 205
169 264 196 27 12 67 38 90 59 23 21 66 50 96 65 30 15 74 41 97 57 23 15 93
54 155 86 62 32 134 74 160 94 26 20 72 46 103 57 30 11 81 34 113 50 31 15
68 32 82 36 30 9 307 131 335 147 83 48 113 61 187 74 46 8 115 26 153 39 39
14 114 34 168 45 54 11 128 33 165 49 57 25 100 32 297 55 151 17 257 34 310
50 44 14 105 27 135 31 30 3 159 10 285 15 283 12 675 -2 750 -26 28 -8 119
-33 204 -55 103 -26 180 -52 233 -79 43 -22 87 -40 96 -40 10 0 33 -8 52 -19
19 -10 61 -33 93 -50 59 -31 155 -120 218 -201 90 -114 134 -214 158 -355 5
-27 7 -106 6 -175 -4 -153 -31 -272 -80 -345 -18 -27 -42 -70 -52 -95 -38 -86
-122 -203 -238 -331 -121 -132 -204 -209 -267 -247 -20 -12 -52 -40 -72 -62
-19 -22 -53 -50 -74 -64 -21 -13 -64 -46 -95 -73 -31 -27 -93 -70 -137 -94
-45 -24 -104 -63 -132 -86 -27 -23 -111 -74 -186 -114 -76 -40 -150 -82 -167
-94 -16 -12 -56 -33 -87 -48 -32 -14 -72 -37 -90 -50 -46 -34 -267 -147 -288
-147 -10 0 -56 -17 -102 -39 -45 -21 -103 -47 -128 -57 -24 -11 -67 -36 -93
-56 -31 -22 -75 -43 -116 -54 -36 -10 -100 -35 -142 -56 -42 -21 -83 -38 -92
-38 -9 0 -51 -18 -93 -40 -42 -22 -114 -51 -160 -65 -46 -14 -86 -30 -89 -35
-11 -18 -79 -47 -140 -61 -33 -7 -89 -27 -125 -44 -36 -18 -96 -42 -135 -53
-38 -12 -89 -35 -113 -51 -24 -17 -69 -35 -100 -41 -31 -6 -88 -26 -127 -45
-38 -19 -109 -46 -157 -60 -47 -14 -97 -34 -111 -45 -13 -10 -48 -29 -78 -40
-30 -12 -64 -31 -76 -42 -29 -27 -39 -80 -23 -118 16 -39 60 -70 98 -70 17 0
54 11 84 25 29 14 69 25 88 25 37 1 80 15 223 75 49 20 116 41 150 46 70 10
418 33 517 33 111 0 403 -25 456 -40 28 -7 68 -28 90 -45 21 -17 66 -44 99
-59 87 -40 254 -185 327 -284 105 -143 132 -214 104 -280 -18 -42 -52 -60
-136 -71 -78 -9 -117 -23 -181 -62 -39 -24 -83 -39 -150 -53 -52 -10 -123 -32
-159 -49 -38 -17 -99 -35 -145 -41 -52 -8 -98 -22 -130 -40 -27 -15 -98 -41
-156 -58 -59 -17 -133 -47 -165 -66 -37 -21 -88 -40 -136 -50 -43 -8 -103 -29
-133 -45 -31 -17 -73 -33 -93 -36 -69 -11 -116 -27 -147 -51 -17 -12 -77 -39
-134 -58 -56 -19 -121 -46 -144 -59 -23 -14 -82 -37 -132 -52 -49 -14 -101
-33 -114 -42 -13 -8 -59 -28 -104 -44 -44 -16 -101 -42 -127 -59 -25 -16 -75
-37 -110 -46 -36 -9 -92 -31 -125 -49 -33 -18 -85 -40 -116 -49 -63 -18 -298
-137 -342 -172 -15 -13 -57 -33 -93 -44 -36 -11 -78 -28 -92 -39 -15 -10 -56
-32 -92 -48 -36 -16 -87 -46 -114 -66 -26 -21 -52 -37 -58 -37 -6 0 -36 -20
-68 -43 -32 -24 -97 -63 -145 -87 -50 -25 -111 -65 -144 -95 -31 -29 -72 -60
-91 -70 -67 -34 -166 -109 -285 -218 -66 -61 -130 -125 -143 -143 -12 -19 -35
-40 -51 -48 -34 -18 -133 -129 -187 -211 -22 -33 -49 -82 -59 -110 -10 -27
-33 -71 -51 -97 -18 -26 -37 -71 -44 -100 -6 -29 -14 -109 -17 -178 -7 -160 7
-255 48 -307 16 -21 42 -59 59 -84 16 -25 57 -69 91 -97 43 -37 69 -52 91 -52
42 0 64 15 77 51 10 29 7 41 -34 123 -25 51 -48 112 -51 137 -14 105 42 257
164 438 42 64 103 142 134 175 32 32 67 78 79 102 12 26 38 56 62 73 55 38
121 103 142 139 9 15 33 39 53 52 34 23 63 47 184 150 26 23 68 50 95 62 26
11 74 45 105 74 65 59 260 191 330 221 25 12 63 36 84 55 37 33 100 70 279
163 136 71 209 115 240 145 33 31 73 50 109 50 13 0 50 14 82 31 32 18 83 40
112 50 29 10 66 27 81 38 16 12 66 36 111 55 45 20 90 42 99 49 26 24 72 44
131 57 30 7 84 27 120 46 36 18 85 38 110 44 25 6 68 24 95 39 56 32 187 81
214 81 9 0 53 17 97 39 44 21 113 46 153 55 40 9 103 32 139 50 37 18 90 38
117 45 28 7 67 26 88 43 40 31 119 60 216 78 30 5 82 23 115 39 39 19 91 33
145 40 59 8 100 19 135 40 54 30 127 55 189 66 50 8 87 -14 87 -53 0 -38 -26
-211 -56 -371 -18 -95 -34 -152 -58 -200 -19 -36 -37 -82 -41 -101 -4 -19 -27
-71 -50 -115 -24 -44 -46 -91 -50 -105 -4 -14 -26 -49 -49 -79 -22 -30 -52
-73 -66 -96 -14 -23 -38 -63 -55 -88 -16 -26 -42 -66 -57 -89 -51 -79 -103
-146 -131 -168 -16 -12 -45 -45 -66 -74 -56 -74 -336 -355 -406 -406 -33 -25
-100 -78 -149 -118 -48 -41 -132 -103 -185 -139 -53 -36 -109 -77 -126 -92
-48 -44 -205 -144 -264 -168 -29 -12 -63 -31 -75 -41 -11 -11 -46 -32 -76 -47
-30 -15 -71 -40 -90 -55 -48 -37 -181 -104 -590 -298 -69 -33 -136 -63 -150
-67 -14 -4 -59 -22 -100 -40 -41 -17 -107 -39 -147 -48 -40 -9 -107 -34 -149
-57 -41 -22 -85 -40 -97 -40 -28 0 -214 -46 -288 -71 -55 -18 -229 -39 -487
-59 -67 -5 -148 -17 -179 -26 -50 -15 -102 -16 -422 -11 -306 4 -403 10 -591
31 -124 15 -280 31 -347 36 -67 6 -137 17 -156 25 -19 8 -59 18 -88 23 -30 5
-92 17 -139 26 -47 9 -131 22 -187 30 -73 10 -119 22 -166 45 -39 19 -106 39
-171 52 -59 11 -142 33 -184 49 -42 16 -124 36 -182 44 -84 13 -123 25 -198
62 -52 25 -124 51 -162 58 -51 9 -78 21 -103 43 -28 25 -51 33 -109 42 -40 6
-127 29 -193 50 -66 22 -145 44 -176 50 -31 7 -83 28 -115 47 -32 20 -88 42
-124 50 -36 8 -102 31 -148 50 -45 20 -126 44 -179 55 -53 11 -117 31 -142 45
-25 14 -84 34 -130 45 -49 11 -115 36 -155 58 -39 22 -100 47 -136 57 -36 9
-96 30 -135 45 -38 15 -114 35 -169 44 -75 12 -123 27 -205 65 -65 30 -132 53
-172 60 -37 5 -95 23 -130 40 -35 16 -96 37 -134 45 -83 19 -225 64 -242 78
-30 23 1 112 47 137 11 6 33 36 49 68 16 31 43 67 60 80 17 12 42 44 55 70 14
27 32 54 40 61 9 7 30 39 48 70 18 31 55 86 82 123 28 36 65 90 82 120 17 29
49 85 72 123 22 39 48 90 58 115 9 25 36 72 59 105 23 33 50 76 59 95 59 116
75 149 86 185 7 22 75 164 150 315 76 151 145 300 155 330 10 30 30 76 46 101
16 25 41 75 55 110 14 35 43 95 64 134 21 38 44 90 50 115 7 25 27 75 46 111
19 36 39 92 45 125 12 65 22 87 51 118 27 28 44 62 58 116 6 25 27 77 45 115
53 112 130 286 149 335 9 25 33 77 54 115 36 68 39 71 127 117 50 26 117 56
150 68 33 11 82 36 110 55 27 20 66 41 87 47 21 6 56 26 78 45 22 19 61 41 87
50 26 9 62 26 79 39 18 13 56 34 85 47 30 14 68 39 84 57 17 18 54 43 84 56
29 13 71 40 92 59 22 19 46 35 54 35 8 0 32 15 52 34 21 18 53 41 71 50 18 9
57 38 86 64 55 50 115 95 201 152 67 45 190 144 207 168 7 10 40 38 73 62 96
69 366 352 474 495 54 72 110 139 125 148 14 10 35 36 47 60 12 23 38 60 58
83 20 22 48 60 64 85 44 71 120 183 153 227 18 23 35 59 39 79 3 21 20 55 37
76 17 22 39 66 49 99 10 33 24 68 32 77 24 27 45 74 62 141 9 36 32 99 50 141
24 52 41 114 55 200 24 141 35 410 20 479 -6 25 -14 82 -19 128 -7 63 -15 91
-35 120 -14 20 -43 61 -63 91 -51 74 -186 166 -263 181 -62 12 -235 20 -295
14z m300 -254 c27 -14 57 -36 67 -50 10 -14 37 -79 60 -145 l43 -120 0 -150
c-1 -137 -3 -156 -28 -223 -14 -40 -34 -115 -43 -165 -9 -51 -28 -123 -41
-162 -27 -77 -92 -228 -125 -290 -11 -22 -32 -62 -45 -90 -14 -27 -38 -63 -53
-80 -16 -16 -36 -52 -46 -80 -9 -27 -27 -63 -41 -79 -13 -16 -35 -50 -48 -75
-12 -25 -35 -57 -50 -71 -15 -14 -40 -43 -54 -65 -37 -58 -81 -111 -210 -254
-159 -175 -183 -200 -211 -225 -14 -11 -50 -47 -80 -78 -30 -31 -103 -99 -161
-150 -59 -51 -149 -133 -202 -181 -52 -48 -117 -100 -144 -115 -62 -35 -137
-88 -188 -133 -38 -34 -69 -52 -225 -137 -36 -19 -84 -52 -106 -73 -23 -20
-56 -45 -74 -54 -18 -10 -51 -30 -72 -46 -22 -15 -63 -35 -92 -43 -28 -8 -92
-38 -141 -66 -50 -27 -95 -50 -101 -50 -6 0 -28 -13 -50 -30 -41 -31 -74 -39
-74 -18 0 7 17 46 39 88 21 41 46 98 55 127 10 28 30 68 46 88 16 20 36 60 46
88 33 100 95 253 149 362 190 390 225 465 235 505 6 25 26 68 45 95 19 28 47
82 63 121 16 39 40 86 54 105 13 19 34 58 46 87 12 30 37 75 56 100 18 26 43
66 55 90 12 24 37 63 56 88 19 25 39 62 45 82 5 21 26 60 45 88 20 27 42 63
49 80 8 17 27 46 43 65 17 19 44 61 61 94 16 33 40 69 52 80 13 11 31 39 41
63 10 24 36 64 58 90 21 26 47 63 56 82 10 19 39 60 65 90 26 30 69 89 97 130
61 92 291 326 393 402 41 31 84 65 94 77 11 12 36 31 55 43 20 12 54 35 75 52
63 49 128 67 227 63 66 -2 96 -8 134 -27z m8687 -4551 c28 -15 21 -45 -19 -81
-113 -102 -171 -166 -183 -203 -8 -23 -14 -87 -14 -155 -1 -155 15 -199 102
-292 71 -75 119 -107 203 -137 74 -26 170 -71 192 -89 9 -8 17 -25 17 -36 0
-12 -18 -43 -40 -70 -22 -26 -40 -56 -40 -65 0 -44 -30 -122 -62 -162 -19 -24
-45 -66 -57 -94 -12 -27 -33 -61 -46 -75 -13 -14 -35 -50 -49 -80 -38 -80
-142 -230 -222 -319 -23 -25 -53 -65 -67 -88 -15 -23 -41 -53 -59 -67 -18 -14
-57 -45 -86 -68 -199 -159 -263 -200 -407 -258 -116 -46 -157 -52 -240 -33
-38 8 -82 21 -96 29 -15 7 -52 41 -83 76 -44 48 -61 77 -77 127 -11 38 -25
125 -31 203 -13 144 -10 173 31 370 11 54 32 119 45 146 13 26 30 77 37 112
13 69 90 234 158 340 22 33 42 73 46 89 3 15 23 48 43 73 21 25 44 64 52 88 9
27 46 80 105 146 49 56 122 140 160 185 44 52 95 98 138 125 37 24 67 47 67
51 0 5 24 24 53 43 28 19 70 51 93 73 33 31 59 43 140 67 143 41 167 44 196
29z m335 -178 c23 -35 47 -86 52 -113 6 -27 11 -84 11 -126 0 -96 -24 -246
-44 -277 -29 -45 -87 -41 -195 13 -45 22 -61 38 -93 90 -21 35 -42 81 -48 102
-9 32 -7 50 10 101 12 35 34 91 50 125 24 54 37 68 96 108 44 30 78 45 94 44
18 -2 36 -20 67 -67z m-14856 -2579 c88 -6 126 -14 158 -30 39 -21 226 -62
349 -78 29 -4 62 -14 74 -24 18 -14 19 -19 8 -41 -37 -69 -267 -311 -353 -370
-31 -22 -64 -50 -73 -63 -8 -14 -38 -36 -67 -50 -29 -14 -95 -60 -147 -101
-90 -71 -164 -117 -310 -192 -36 -19 -85 -45 -110 -58 -25 -13 -70 -36 -100
-50 -30 -14 -70 -36 -88 -50 -19 -13 -55 -27 -80 -31 -26 -3 -85 -20 -132 -36
-47 -16 -158 -42 -246 -58 -89 -17 -183 -37 -210 -45 -27 -8 -71 -15 -99 -15
-27 0 -77 -6 -110 -13 -33 -7 -77 -11 -98 -9 -22 2 -124 27 -228 56 -161 46
-194 58 -227 87 -21 19 -53 42 -71 51 -17 10 -34 25 -37 35 -3 10 -24 55 -46
101 -36 73 -40 88 -35 132 3 28 28 98 54 156 36 80 65 126 116 185 37 44 81
85 96 93 15 8 49 35 77 59 27 24 69 54 94 67 25 12 63 36 86 52 28 20 61 32
110 39 47 8 86 22 124 45 64 39 116 58 185 69 27 4 85 22 130 40 75 31 102 36
305 59 59 7 778 -3 901 -12z"/>
<path d="M14240 11682 c-42 -13 -183 -117 -216 -159 -21 -27 -66 -77 -100
-113 -115 -119 -206 -224 -247 -285 -22 -33 -68 -90 -103 -126 -36 -38 -73
-89 -87 -120 -13 -30 -32 -61 -42 -69 -18 -15 -82 -107 -142 -203 -17 -29 -41
-65 -52 -82 -11 -16 -38 -64 -60 -107 -21 -42 -53 -96 -71 -120 -45 -62 -128
-207 -141 -248 -7 -19 -24 -51 -39 -70 -15 -19 -41 -67 -57 -106 -17 -39 -44
-89 -61 -110 -18 -22 -43 -69 -57 -104 -14 -36 -42 -92 -62 -125 -24 -39 -39
-78 -44 -114 -5 -36 -18 -68 -39 -97 -17 -24 -37 -60 -44 -81 -7 -21 -27 -60
-44 -87 -17 -27 -39 -72 -48 -100 -9 -28 -32 -80 -49 -116 -18 -36 -39 -95
-46 -130 -13 -70 -29 -108 -65 -156 -13 -17 -33 -57 -44 -90 -11 -32 -27 -72
-34 -89 -33 -70 -86 -205 -86 -218 0 -7 -11 -40 -24 -73 -14 -33 -37 -103 -51
-155 -15 -52 -40 -115 -56 -140 -16 -25 -38 -83 -50 -129 -11 -46 -34 -113
-50 -149 -17 -36 -39 -104 -50 -151 -11 -46 -31 -109 -44 -140 -14 -30 -40
-100 -58 -155 -19 -55 -49 -140 -67 -189 -26 -72 -31 -100 -27 -137 10 -79 30
-114 97 -163 70 -52 101 -57 167 -26 31 14 44 26 48 47 17 80 30 108 74 157
27 30 54 71 61 92 7 22 22 52 33 67 11 16 35 65 53 108 19 44 45 99 58 122 13
23 36 78 50 122 15 47 41 98 61 124 19 24 44 74 55 110 12 36 29 80 39 97 10
17 24 48 31 70 7 21 26 66 42 99 17 33 42 92 57 130 15 39 42 90 59 114 18 24
41 74 52 110 12 36 36 91 54 121 19 30 43 87 55 125 11 39 32 86 46 104 13 19
32 59 40 90 9 31 31 81 50 111 18 30 47 91 64 135 18 44 52 116 76 160 45 80
90 170 138 275 14 30 32 66 41 80 8 14 42 83 76 155 34 71 74 147 89 170 42
61 148 279 165 339 9 30 32 77 51 105 19 28 44 75 55 104 11 29 33 74 50 100
16 26 30 51 30 54 0 16 247 503 275 543 18 25 40 70 50 100 10 30 33 72 50 93
18 21 38 58 45 83 7 26 33 70 56 99 60 74 94 141 94 187 0 31 -8 47 -40 82
-41 45 -63 56 -90 48z"/>
<path d="M9925 8550 c-95 -23 -119 -38 -172 -108 -28 -37 -61 -92 -73 -121
-12 -30 -39 -80 -61 -110 -88 -122 -111 -159 -144 -227 -19 -39 -52 -93 -75
-120 -22 -27 -40 -52 -40 -56 0 -4 -22 -33 -50 -64 -27 -31 -50 -61 -50 -65 0
-5 -19 -31 -42 -58 -78 -90 -107 -128 -143 -189 -19 -33 -46 -69 -59 -79 -13
-10 -42 -46 -65 -81 -23 -35 -101 -125 -173 -200 -72 -75 -149 -159 -170 -187
-51 -64 -340 -343 -381 -368 -18 -11 -49 -34 -69 -53 -20 -18 -54 -38 -76 -43
-21 -6 -47 -20 -57 -31 -10 -11 -33 -30 -51 -41 -63 -38 -188 -20 -227 33 -28
38 -33 123 -13 227 8 46 30 114 47 150 31 63 67 150 129 310 16 41 45 98 65
127 19 30 35 57 35 61 0 3 20 39 45 79 25 39 52 87 59 106 8 18 33 64 55 103
23 38 46 85 52 105 7 19 32 62 56 95 25 33 54 78 65 100 11 22 28 49 37 60 38
45 105 159 133 227 16 40 40 84 53 98 43 47 65 93 65 140 0 25 -9 63 -19 86
-15 32 -28 45 -62 59 -84 34 -325 29 -406 -8 -13 -6 -33 -25 -44 -43 -11 -18
-38 -47 -60 -65 -22 -17 -46 -43 -54 -58 -7 -15 -30 -48 -51 -72 -20 -24 -50
-73 -66 -109 -16 -36 -38 -74 -48 -85 -10 -11 -37 -59 -58 -106 -22 -48 -45
-90 -51 -93 -6 -4 -23 -31 -37 -59 -15 -29 -41 -72 -59 -97 -18 -25 -37 -61
-44 -80 -6 -19 -23 -55 -37 -80 -14 -25 -37 -76 -51 -115 -14 -38 -43 -97 -63
-130 -21 -33 -52 -98 -68 -145 -17 -47 -38 -103 -47 -124 -9 -21 -23 -78 -31
-125 -8 -47 -23 -113 -33 -146 -12 -39 -21 -111 -25 -205 l-7 -145 38 -105
c22 -58 57 -132 80 -165 35 -52 53 -67 137 -114 76 -41 111 -55 162 -61 70 -9
144 -5 209 12 48 12 223 106 285 153 25 19 72 61 105 92 33 32 91 80 128 107
38 26 88 69 112 95 54 57 95 98 213 213 51 49 109 111 129 136 57 73 233 242
233 225 0 -9 -13 -43 -30 -77 -30 -61 -66 -174 -101 -316 -13 -51 -20 -116
-21 -203 l-2 -127 57 -113 c48 -95 66 -119 115 -159 75 -62 202 -126 277 -139
45 -7 91 -6 180 4 112 14 128 18 238 72 65 31 153 78 195 104 139 85 220 139
227 150 3 6 39 37 78 68 80 64 384 364 463 458 28 33 75 92 104 130 30 39 61
76 71 82 9 7 24 31 33 54 9 23 49 76 87 118 39 42 82 96 96 121 14 25 41 69
61 98 42 64 54 137 28 177 -12 19 -25 25 -52 25 -28 0 -45 -10 -91 -52 -32
-31 -65 -74 -78 -103 -13 -27 -40 -68 -62 -90 -64 -65 -109 -126 -138 -187
-18 -38 -39 -65 -61 -79 -19 -11 -34 -24 -34 -28 0 -15 -216 -250 -297 -323
-47 -42 -95 -92 -108 -110 -12 -18 -55 -60 -96 -93 -40 -33 -89 -74 -108 -91
-20 -17 -50 -38 -66 -47 -17 -8 -53 -34 -80 -56 -29 -24 -76 -50 -115 -63 -36
-11 -82 -32 -102 -45 -24 -17 -56 -26 -95 -30 -45 -3 -66 0 -93 15 -19 10 -48
39 -65 63 -30 44 -30 45 -30 179 0 130 1 138 32 205 17 39 38 98 47 131 8 34
33 102 55 150 21 49 45 116 52 148 9 39 24 74 46 100 18 23 42 61 53 86 11 25
38 79 59 120 21 41 44 94 50 117 6 23 27 64 45 92 19 27 47 74 63 103 16 29
55 95 87 146 31 51 72 126 90 166 19 41 51 97 72 124 49 63 110 160 125 198 6
16 12 61 13 101 1 58 -3 77 -20 100 -33 44 -103 65 -224 69 -58 2 -123 -1
-145 -6z"/>
<path d="M11392 2703 c-42 -14 -66 -36 -86 -78 -14 -29 -16 -77 -12 -352 3
-250 7 -326 19 -354 16 -40 67 -86 103 -95 13 -4 50 -3 82 2 31 4 122 8 202 8
l145 1 78 44 c43 24 83 53 87 65 14 34 28 194 20 229 -4 18 -19 61 -34 96
l-28 64 21 54 c12 30 21 75 21 99 0 44 -22 104 -39 104 -4 0 -35 25 -67 54
-42 40 -70 57 -99 63 -65 12 -375 9 -413 -4z m352 -163 c34 -12 59 -63 51
-101 -4 -16 -17 -36 -29 -44 -14 -9 -58 -16 -119 -19 -92 -4 -99 -3 -127 21
-20 16 -30 34 -30 51 1 36 22 72 51 88 28 16 166 19 203 4z m44 -356 c57 -7
82 -33 82 -84 0 -32 -5 -43 -27 -57 -22 -15 -52 -18 -170 -20 -136 -2 -144 -1
-170 21 -48 42 -28 111 40 141 27 11 151 11 245 -1z"/>
<path d="M12705 2708 c-27 -3 -79 -20 -115 -36 -46 -21 -84 -50 -131 -99 -36
-37 -71 -77 -76 -88 -6 -11 -14 -42 -18 -70 -4 -27 -18 -69 -31 -92 -13 -23
-24 -54 -24 -70 0 -15 13 -47 29 -71 16 -23 34 -64 41 -92 9 -36 26 -65 63
-107 80 -88 97 -102 136 -112 20 -5 68 -17 106 -26 111 -28 138 -29 188 -7 25
11 72 26 104 32 50 11 66 20 114 69 31 31 73 70 92 86 29 25 40 48 66 130 17
54 31 111 31 126 0 15 -14 64 -30 110 -25 66 -42 95 -96 153 -36 39 -84 81
-107 94 -23 13 -55 35 -70 50 -27 26 -34 27 -125 27 -53 0 -119 -3 -147 -7z
m220 -203 c45 -30 88 -62 97 -72 9 -10 25 -37 37 -60 15 -31 21 -61 21 -110 0
-40 -6 -80 -14 -96 -8 -15 -34 -50 -57 -77 -27 -32 -55 -54 -78 -61 -21 -6
-91 -9 -165 -7 l-128 3 -45 49 c-65 73 -76 99 -77 191 -1 66 3 88 24 130 30
60 101 116 180 144 90 32 113 28 205 -34z"/>
<path d="M13667 2701 c-27 -11 -55 -28 -62 -38 -29 -38 -35 -113 -37 -430 -2
-300 -1 -323 16 -342 39 -42 128 -35 161 13 9 12 15 44 15 78 0 45 5 62 23 84
19 22 34 28 78 31 45 4 60 1 89 -19 19 -13 58 -57 85 -98 75 -110 160 -160
230 -134 19 8 45 55 45 84 0 13 -34 53 -90 108 -49 48 -90 94 -90 102 0 21 10
32 47 58 34 24 106 140 124 202 18 58 1 101 -73 190 -45 53 -79 83 -118 103
-52 27 -60 28 -130 21 -96 -9 -131 -10 -205 -1 -48 6 -70 3 -108 -12z m312
-166 c58 -15 108 -56 111 -90 5 -47 -2 -68 -28 -94 -39 -39 -128 -55 -207 -36
-31 7 -65 20 -74 29 -20 21 -19 88 3 140 10 24 26 41 48 51 42 18 80 18 147 0z"/>
<path d="M15955 2711 c-137 -5 -208 -11 -227 -20 -15 -8 -35 -30 -45 -50 -16
-33 -18 -65 -15 -366 1 -181 7 -346 12 -366 5 -19 21 -46 35 -59 24 -22 33
-24 181 -27 171 -3 329 15 370 42 52 34 56 100 8 132 -20 13 -61 18 -175 24
-82 4 -166 3 -187 -2 -27 -6 -43 -4 -59 6 -12 8 -27 24 -33 36 -15 27 -4 75
23 99 19 18 36 20 173 20 149 0 153 1 183 26 18 15 31 35 31 49 0 34 -36 73
-78 85 -20 5 -88 10 -150 10 -107 0 -114 1 -137 25 -19 18 -25 35 -25 70 0 25
7 59 15 75 l16 30 130 0 c72 0 149 5 173 11 56 14 96 51 96 89 0 35 -28 57
-80 63 -19 2 -125 1 -235 -2z"/>
<path d="M18517 2700 c-14 -11 -31 -36 -37 -56 -8 -24 -13 -147 -14 -384 -1
-339 0 -349 20 -377 11 -15 33 -34 47 -41 23 -11 31 -11 55 3 15 9 37 31 49
48 20 31 20 40 16 382 -5 318 -7 353 -24 387 -19 37 -45 58 -72 58 -8 0 -26
-9 -40 -20z"/>
<path d="M3607 2684 c-14 -14 -29 -42 -35 -63 -5 -20 -10 -180 -10 -374 l-1
-338 34 -37 34 -37 257 0 c161 0 262 4 271 10 20 15 26 85 11 115 -24 44 -60
54 -231 60 -153 5 -159 6 -179 30 -15 19 -18 31 -12 60 4 19 8 139 9 265 1
158 -2 240 -11 261 -14 38 -59 74 -90 74 -13 0 -34 -12 -47 -26z"/>
<path d="M5581 2685 c-15 -13 -32 -41 -38 -62 -11 -39 -10 -347 2 -478 4 -40
1 -100 -5 -138 -11 -59 -10 -71 7 -104 10 -21 32 -45 49 -55 16 -10 55 -19 85
-22 30 -2 87 -7 126 -11 62 -6 80 -4 125 14 29 11 88 27 132 36 43 8 86 20 95
27 9 7 25 24 36 38 11 14 39 42 62 63 22 21 46 50 52 65 5 15 17 64 26 109 14
70 14 95 4 160 -20 131 -27 149 -84 216 -41 48 -69 70 -108 86 -28 12 -74 34
-102 49 -49 26 -53 27 -243 28 -189 2 -193 2 -221 -21z m361 -160 c18 -8 52
-19 75 -25 23 -6 55 -21 71 -35 16 -13 41 -52 56 -86 24 -53 28 -71 25 -138
-4 -73 -6 -79 -47 -131 -24 -29 -51 -59 -60 -66 -26 -18 -125 -34 -212 -34
-61 0 -82 4 -102 19 l-24 19 3 204 c1 111 3 215 3 229 0 14 10 36 22 48 19 22
27 23 89 17 38 -3 83 -13 101 -21z"/>
<path d="M14740 2700 c-71 -15 -100 -31 -116 -62 -18 -36 -34 -252 -24 -346 3
-35 3 -89 -1 -120 -11 -87 -10 -183 2 -227 13 -46 51 -91 85 -99 32 -8 89 17
110 48 13 22 15 39 10 91 -7 66 -1 89 30 119 20 21 64 20 94 -1 13 -10 45 -25
70 -33 37 -12 49 -23 68 -60 12 -24 41 -67 65 -94 23 -27 44 -52 47 -56 9 -13
49 -30 70 -30 11 0 32 11 45 25 19 18 25 35 25 67 0 38 -18 81 -40 98 -18 13
-100 121 -100 131 0 6 22 36 50 66 27 31 56 71 65 90 23 47 30 124 16 179 -9
35 -28 65 -77 118 -36 39 -78 76 -93 83 -35 15 -343 25 -401 13z m273 -172
c38 -12 82 -30 100 -42 62 -43 51 -118 -24 -154 -33 -16 -68 -22 -137 -24
l-94 -3 -29 33 c-34 38 -37 75 -13 145 18 55 53 79 99 71 17 -3 61 -14 98 -26z"/>
<path d="M8623 2685 c-11 -8 -26 -34 -32 -59 -7 -29 -11 -161 -11 -368 0 -303
1 -325 20 -355 41 -69 166 -99 287 -70 51 12 72 13 120 3 93 -20 155 6 184 75
18 45 0 74 -58 93 -36 12 -82 15 -183 14 -98 -2 -142 2 -160 11 -14 8 -28 18
-31 23 -3 4 -4 131 -3 281 2 294 0 305 -52 346 -31 25 -52 26 -81 6z"/>
<path d="M6706 2668 c-11 -18 -16 -84 -22 -303 -4 -154 -3 -316 1 -359 6 -70
11 -83 36 -109 25 -24 35 -28 61 -23 18 3 42 16 55 28 21 20 22 27 20 157 -2
149 6 181 47 181 28 0 44 -18 85 -95 17 -33 48 -82 69 -109 43 -57 84 -74 131
-54 30 13 121 119 148 173 25 49 86 125 100 125 7 0 13 -8 13 -17 3 -171 15
-344 25 -370 17 -40 57 -67 88 -59 13 3 33 23 45 45 22 38 23 52 24 233 0 106
-2 267 -3 356 l-4 164 -28 24 c-15 13 -40 24 -56 24 -44 0 -105 -48 -147 -115
-22 -33 -57 -89 -79 -124 -22 -35 -63 -100 -90 -144 -35 -57 -56 -82 -70 -82
-13 0 -30 18 -50 51 -65 109 -92 148 -130 191 -22 25 -53 72 -70 106 -23 46
-42 69 -79 94 -57 39 -99 43 -120 11z"/>
<path d="M8060 2672 c-62 -31 -63 -38 -62 -421 1 -321 2 -346 20 -370 10 -14
34 -29 53 -34 26 -7 41 -5 65 8 62 33 62 37 65 405 2 303 1 338 -15 368 -10
20 -31 39 -51 48 -19 8 -36 14 -37 14 -2 0 -19 -8 -38 -18z"/>
<path d="M9791 2671 c-10 -10 -22 -37 -26 -59 -3 -22 -26 -70 -51 -108 -24
-37 -44 -74 -44 -83 0 -20 -34 -78 -66 -112 -14 -14 -33 -53 -43 -86 -10 -32
-32 -79 -50 -103 -31 -43 -71 -152 -71 -195 0 -29 29 -54 67 -57 51 -4 78 18
108 88 24 56 31 65 68 78 89 32 118 35 225 25 57 -5 112 -14 122 -19 9 -5 23
-31 30 -57 25 -94 64 -133 131 -133 20 0 40 10 60 29 16 16 29 38 29 48 0 10
-11 38 -24 63 -13 25 -29 62 -35 82 -7 21 -28 56 -47 79 -18 22 -39 59 -44 82
-6 23 -16 59 -21 80 -6 21 -25 55 -43 75 -19 21 -41 61 -50 92 -19 65 -89 186
-116 200 -31 17 -88 12 -109 -9z m111 -347 c24 -25 46 -51 50 -58 4 -7 0 -22
-8 -34 -12 -17 -25 -22 -57 -21 -57 1 -88 11 -101 32 -9 14 -5 29 18 72 16 30
34 55 42 55 7 0 32 -21 56 -46z"/>
<path d="M16705 2680 c-11 -4 -28 -17 -38 -28 -17 -19 -18 -44 -15 -386 l4
-366 32 -33 33 -32 219 2 c190 1 223 4 249 19 16 10 37 31 46 48 13 24 14 37
6 58 -12 32 -48 58 -82 59 -13 0 -87 0 -164 0 -109 -1 -142 2 -154 13 -11 12
-14 64 -16 278 -2 258 -9 326 -37 354 -17 17 -58 24 -83 14z"/>
<path d="M17609 2678 c-29 -25 -40 -47 -49 -101 -5 -30 -10 -193 -11 -361 -2
-289 -1 -307 17 -327 48 -53 139 -72 270 -57 78 9 99 8 140 -6 75 -25 99 -21
144 24 44 44 57 80 44 119 -15 41 -65 51 -257 53 -165 1 -169 2 -184 25 -11
17 -13 33 -8 60 11 53 5 481 -7 512 -13 35 -48 71 -68 71 -9 0 -23 -6 -31 -12z"/>
<path d="M4461 2654 c-18 -14 -36 -35 -42 -47 -7 -13 -13 -103 -14 -236 -3
-208 -2 -219 22 -286 13 -38 33 -84 44 -101 31 -51 92 -100 153 -123 31 -12
75 -30 96 -41 22 -11 48 -20 59 -20 11 0 40 9 63 20 24 11 62 24 85 30 29 7
66 32 119 78 65 57 82 79 114 147 l38 80 -4 209 c-4 234 -12 265 -72 299 -45
26 -88 14 -113 -32 -16 -31 -18 -56 -15 -245 3 -230 -7 -308 -43 -337 -12 -10
-53 -23 -93 -29 -76 -13 -147 -9 -190 11 -48 21 -53 52 -51 318 2 261 -1 282
-49 315 -33 23 -72 19 -107 -10z"/>
  </g>
</svg>